<svg width="146" height="56" viewBox="0 0 146 56" fill="none" xmlns="http://www.w3.org/2000/svg">
<g clip-path="url(#clip0_5102_10130)">
<path d="M49.5247 24.1846L46.5282 22.2751C46.1626 22.0409 45.6993 22.0301 45.3229 22.2462L37.2744 26.8399C36.9088 27.0489 36.4632 27.0453 36.1011 26.8309L22.3153 18.6613C21.442 18.1443 20.2952 18.5244 19.9437 19.4864C19.7698 19.962 19.7467 20.4484 19.8017 20.8987C19.9313 21.9634 20.5846 22.8894 21.5041 23.419L35.8632 31.7093C36.2324 31.9218 36.4597 32.32 36.4597 32.7505V48.3871C36.4597 49.3095 35.4762 49.8841 34.6898 49.4248L14.1426 37.3947C13.7751 37.1803 13.3242 37.1803 12.9568 37.3983L3.03198 43.2854C2.57754 43.5556 2.58109 44.224 3.03908 44.4888L21.142 54.9444C22.2852 55.6056 23.5739 55.9839 24.8893 55.9983C24.9869 56.0001 25.0846 55.9983 25.1804 55.9965C26.6147 55.9713 28.0171 55.5677 29.2774 54.8706C30.8662 53.9915 33.7579 52.3738 36.6815 50.6462C40.6135 48.3259 44.6697 45.9858 46.1626 45.0995C46.9827 44.6113 47.6359 44.024 48.1561 43.4151C49.4288 41.9217 50.0768 39.9834 50.0768 38.009V25.197C50.0785 24.7863 49.8691 24.4044 49.5247 24.1846Z" fill="#010C41"/>
<path d="M5.0698 34.2264L13.3331 29.4958C13.5496 29.3715 13.8159 29.3769 14.0272 29.5084L27.7969 38.2149C29.4176 39.2669 29.936 38.4472 30.2342 37.9104C30.3318 37.7339 30.4028 37.5429 30.4454 37.3447C31.1324 34.1544 28.3774 33.1329 28.3774 33.1329L14.0591 24.4265L14.068 24.4373C13.8585 24.313 13.7289 24.0842 13.7289 23.8374L13.7236 8.51968C13.7236 7.59913 14.7017 7.02267 15.4899 7.48024L35.991 19.3788C36.3513 19.5878 36.7916 19.5896 37.1537 19.3842L46.5477 14.0465C47.3483 13.5908 47.3537 12.4234 46.5548 11.9623L26.4283 0.319458C25.0117 -0.399322 23.3609 0.319458 23.3609 0.319458L3.07987 11.9118C2.91478 12.0055 2.74969 12.1028 2.59526 12.2145C1.79644 12.7891 1.2426 13.5007 0.857393 14.1925C0.275147 15.2373 0 16.4299 0 17.6314V31.2378C0 31.6648 0.223668 32.0593 0.589347 32.2737L3.89998 34.2192C4.26211 34.4318 4.7059 34.4354 5.0698 34.2264Z" fill="#010C41"/>
<path d="M58.7876 29.5508L59.755 29.4643C59.8012 29.857 59.9077 30.1813 60.0746 30.4335C60.2414 30.6857 60.5024 30.8893 60.8539 31.046C61.2071 31.2009 61.603 31.2802 62.0432 31.2802C62.4337 31.2802 62.7799 31.2207 63.0799 31.1036C63.3799 30.9866 63.6018 30.8244 63.7491 30.6173C63.8964 30.4101 63.9692 30.1867 63.9692 29.9435C63.9692 29.6967 63.8982 29.4805 63.758 29.2968C63.6178 29.113 63.3852 28.9581 63.0604 28.832C62.8527 28.7491 62.3929 28.6212 61.6811 28.4483C60.9692 28.2754 60.4704 28.1114 60.1846 27.9565C59.8154 27.7601 59.5385 27.5151 59.3574 27.2233C59.1764 26.9315 59.0858 26.6054 59.0858 26.2433C59.0858 25.847 59.1959 25.4759 59.4195 25.13C59.6414 24.7841 59.9663 24.5229 60.3923 24.3446C60.8184 24.1662 61.2923 24.0762 61.8142 24.0762C62.3894 24.0762 62.8953 24.1698 63.3337 24.3572C63.7722 24.5446 64.1095 24.822 64.3456 25.1859C64.5817 25.5516 64.7077 25.9641 64.7254 26.4253L63.742 26.5009C63.6888 26.0037 63.5095 25.629 63.2059 25.375C62.9006 25.121 62.4515 24.9931 61.855 24.9931C61.2337 24.9931 60.7829 25.1084 60.4988 25.339C60.2148 25.5696 60.0728 25.8488 60.0728 26.1731C60.0728 26.4559 60.174 26.6883 60.3746 26.8702C60.5716 27.0522 61.0882 27.2395 61.9207 27.4305C62.755 27.6214 63.3266 27.789 63.6373 27.9331C64.0882 28.1439 64.4219 28.4123 64.6367 28.7347C64.8515 29.0572 64.9598 29.4319 64.9598 29.8534C64.9598 30.2714 64.8408 30.6659 64.6047 31.037C64.3686 31.4081 64.0296 31.6945 63.5876 31.9017C63.1456 32.1071 62.6468 32.2097 62.0929 32.2097C61.3917 32.2097 60.8042 32.1053 60.3302 31.8981C59.8562 31.6909 59.4835 31.3793 59.2136 30.9613C58.9438 30.547 58.8018 30.0768 58.7876 29.5508Z" fill="#010C41"/>
<path d="M69.646 32.0786V31.2409C69.2093 31.884 68.6146 32.2065 67.8638 32.2065C67.5318 32.2065 67.2229 32.1416 66.9354 32.0137C66.6478 31.8858 66.4348 31.7237 66.2963 31.5273C66.1561 31.3328 66.0584 31.0932 66.0034 30.8103C65.9644 30.6212 65.9448 30.3203 65.9448 29.9096V26.3788H66.8963V29.5385C66.8963 30.0429 66.9158 30.3834 66.9549 30.5581C67.0152 30.8121 67.1413 31.0121 67.3348 31.1562C67.5283 31.3003 67.7679 31.3742 68.0537 31.3742C68.3395 31.3742 68.6075 31.3003 68.8578 31.1508C69.1081 31.0013 69.2856 30.7995 69.3886 30.5437C69.4933 30.2879 69.5448 29.9168 69.5448 29.4304V26.377H70.4963V32.075H69.646V32.0786Z" fill="#010C41"/>
<path d="M71.7173 34.2611V26.3797H72.5836V27.1201C72.7877 26.8301 73.0185 26.6139 73.2759 26.468C73.5333 26.3239 73.8457 26.25 74.2114 26.25C74.6906 26.25 75.1131 26.3761 75.4806 26.6247C75.8463 26.8751 76.1232 27.2282 76.3114 27.684C76.4977 28.1397 76.5918 28.6405 76.5918 29.1828C76.5918 29.7664 76.4889 30.2907 76.2829 30.7572C76.077 31.2238 75.777 31.5823 75.3847 31.8309C74.9924 32.0795 74.5788 32.2038 74.1457 32.2038C73.8279 32.2038 73.5439 32.1354 73.2918 32.0002C73.0398 31.8651 72.8321 31.6922 72.6705 31.485V34.2593H71.7173V34.2611ZM72.58 29.2602C72.58 29.9934 72.7256 30.5357 73.0185 30.8851C73.3114 31.2364 73.6646 31.4112 74.0818 31.4112C74.5043 31.4112 74.8664 31.2292 75.1682 30.8671C75.4699 30.505 75.6208 29.9412 75.6208 29.1792C75.6208 28.4532 75.4735 27.9091 75.1788 27.5488C74.8841 27.1868 74.5327 27.0066 74.1244 27.0066C73.7196 27.0066 73.3611 27.1994 73.0486 27.5831C72.7362 27.9686 72.58 28.527 72.58 29.2602Z" fill="#010C41"/>
<path d="M81.3138 30.242L82.2972 30.3645C82.1427 30.9482 81.8552 31.4004 81.4345 31.7228C81.0155 32.0453 80.4794 32.2056 79.828 32.2056C79.0061 32.2056 78.3564 31.9498 77.8753 31.4364C77.3943 30.923 77.1528 30.2024 77.1528 29.2764C77.1528 28.3181 77.396 27.5741 77.8824 27.0444C78.3688 26.5148 78.999 26.25 79.7747 26.25C80.5256 26.25 81.138 26.5094 81.6155 27.0282C82.0913 27.547 82.3291 28.2766 82.3291 29.217C82.3291 29.2746 82.3274 29.3593 82.3238 29.4746H78.1363C78.1718 30.0997 78.3457 30.5789 78.6599 30.9122C78.9741 31.2454 79.3647 31.4112 79.8333 31.4112C80.183 31.4112 80.4794 31.3175 80.7262 31.1319C80.9729 30.9464 81.1682 30.6492 81.3138 30.242ZM78.1877 28.6802H81.3226C81.28 28.201 81.1611 27.8407 80.9623 27.6011C80.6587 27.2282 80.2664 27.0426 79.7836 27.0426C79.3469 27.0426 78.9794 27.1904 78.6812 27.4876C78.3848 27.7866 78.2197 28.183 78.1877 28.6802Z" fill="#010C41"/>
<path d="M83.21 32.0779V26.3799H84.0674V27.2446C84.2857 26.841 84.4881 26.5744 84.6727 26.4447C84.8573 26.3168 85.0614 26.252 85.2833 26.252C85.6046 26.252 85.9295 26.3564 86.2614 26.5636L85.933 27.4589C85.7005 27.3184 85.4679 27.25 85.2354 27.25C85.0277 27.25 84.8413 27.313 84.6745 27.4409C84.5076 27.5688 84.3904 27.7436 84.3194 27.9687C84.2129 28.3128 84.1614 28.6875 84.1614 29.0946V32.0779H83.21Z" fill="#010C41"/>
<path d="M86.561 25.3224V24.2109H87.5125V25.3224H86.561ZM86.561 32.0779V26.3799H87.5125V32.0779H86.561Z" fill="#010C41"/>
<path d="M88.6914 32.0779V26.3799H89.547V27.1905C89.9589 26.5654 90.5553 26.252 91.3346 26.252C91.6736 26.252 91.9843 26.3132 92.2683 26.4375C92.5523 26.5618 92.7636 26.7221 92.9056 26.9239C93.0458 27.1239 93.1452 27.3616 93.202 27.6373C93.2375 27.8156 93.2553 28.1291 93.2553 28.5758V32.0797H92.3038V28.6137C92.3038 28.2209 92.2665 27.9255 92.192 27.7309C92.1174 27.5364 91.9861 27.3797 91.7979 27.2644C91.6097 27.1491 91.3878 27.0896 91.134 27.0896C90.7293 27.0896 90.3796 27.2193 90.0849 27.4805C89.7902 27.7418 89.6429 28.2372 89.6429 28.9667V32.0797H88.6914V32.0779Z" fill="#010C41"/>
<path d="M96.5218 31.2126L96.6585 32.0665C96.3904 32.1241 96.1508 32.1529 95.9395 32.1529C95.5934 32.1529 95.3253 32.0971 95.1354 31.9872C94.9455 31.8755 94.8105 31.7314 94.7342 31.5495C94.6579 31.3675 94.6171 30.9892 94.6171 30.4091V27.1305H93.9194V26.3793H94.6171V24.9687L95.5632 24.3887V26.3793H96.52V27.1305H95.5632V30.4632C95.5632 30.7388 95.5792 30.9153 95.6129 30.9946C95.6466 31.0739 95.7017 31.1351 95.7762 31.182C95.8526 31.2288 95.9608 31.2522 96.1011 31.2522C96.2094 31.2504 96.3478 31.2378 96.5218 31.2126Z" fill="#010C41"/>
<path d="M101.025 30.242L102.009 30.3645C101.854 30.9482 101.567 31.4004 101.146 31.7228C100.727 32.0453 100.191 32.2056 99.5394 32.2056C98.7175 32.2056 98.0678 31.9498 97.5867 31.4364C97.1057 30.923 96.8643 30.2024 96.8643 29.2764C96.8643 28.3181 97.1075 27.5741 97.5938 27.0444C98.0802 26.5148 98.7104 26.25 99.4861 26.25C100.237 26.25 100.849 26.5094 101.327 27.0282C101.803 27.547 102.041 28.2766 102.041 29.217C102.041 29.2746 102.039 29.3593 102.035 29.4746H97.8459C97.8814 30.0997 98.0554 30.5789 98.3696 30.9122C98.6838 31.2454 99.0743 31.4112 99.5429 31.4112C99.8927 31.4112 100.189 31.3175 100.436 31.1319C100.684 30.9464 100.88 30.6492 101.025 30.242ZM97.8992 28.6802H101.034C100.991 28.201 100.873 27.8407 100.674 27.6011C100.37 27.2282 99.9779 27.0426 99.495 27.0426C99.0583 27.0426 98.6909 27.1904 98.3927 27.4876C98.0962 27.7866 97.9311 28.183 97.8992 28.6802Z" fill="#010C41"/>
<path d="M102.932 32.0779V26.3799H103.787V27.1905C104.199 26.5654 104.796 26.252 105.575 26.252C105.914 26.252 106.225 26.3132 106.509 26.4375C106.793 26.5618 107.004 26.7221 107.146 26.9239C107.286 27.1239 107.385 27.3616 107.442 27.6373C107.478 27.8156 107.496 28.1291 107.496 28.5758V32.0797H106.544V28.6137C106.544 28.2209 106.507 27.9255 106.432 27.7309C106.358 27.5364 106.226 27.3797 106.038 27.2644C105.85 27.1491 105.628 27.0896 105.374 27.0896C104.97 27.0896 104.62 27.2193 104.325 27.4805C104.03 27.7418 103.883 28.2372 103.883 28.9667V32.0797H102.932V32.0779Z" fill="#010C41"/>
<path d="M112.328 32.0779V31.3591C111.971 31.9248 111.449 32.2076 110.757 32.2076C110.309 32.2076 109.897 32.0815 109.521 31.8329C109.145 31.5825 108.855 31.233 108.648 30.7844C108.442 30.3359 108.339 29.8189 108.339 29.237C108.339 28.6677 108.433 28.1525 108.619 27.6895C108.806 27.2266 109.086 26.8717 109.461 26.6249C109.834 26.3781 110.252 26.2538 110.714 26.2538C111.053 26.2538 111.353 26.3258 111.618 26.4718C111.882 26.6159 112.097 26.805 112.262 27.0374V24.2109H113.208V32.0779H112.328ZM109.319 29.2334C109.319 29.963 109.47 30.5088 109.773 30.8691C110.077 31.2294 110.434 31.4113 110.847 31.4113C111.263 31.4113 111.616 31.2384 111.907 30.8943C112.198 30.5485 112.344 30.0224 112.344 29.3145C112.344 28.5344 112.196 27.9616 111.9 27.5977C111.603 27.2338 111.239 27.05 110.805 27.05C110.382 27.05 110.029 27.2248 109.745 27.5761C109.461 27.9255 109.319 28.4786 109.319 29.2334Z" fill="#010C41"/>
<path d="M118.28 30.242L119.263 30.3645C119.109 30.9482 118.821 31.4004 118.4 31.7228C117.981 32.0453 117.445 32.2056 116.794 32.2056C115.972 32.2056 115.322 31.9498 114.841 31.4364C114.36 30.923 114.119 30.2024 114.119 29.2764C114.119 28.3181 114.362 27.5741 114.848 27.0444C115.335 26.5148 115.965 26.25 116.741 26.25C117.491 26.25 118.104 26.5094 118.581 27.0282C119.057 27.547 119.295 28.2766 119.295 29.217C119.295 29.2746 119.293 29.3593 119.29 29.4746H115.102C115.138 30.0997 115.312 30.5789 115.626 30.9122C115.94 31.2454 116.33 31.4112 116.799 31.4112C117.149 31.4112 117.445 31.3175 117.692 31.1319C117.939 30.9464 118.134 30.6492 118.28 30.242ZM115.155 28.6802H118.29C118.248 28.201 118.129 27.8407 117.93 27.6011C117.626 27.2282 117.234 27.0426 116.751 27.0426C116.315 27.0426 115.947 27.1904 115.649 27.4876C115.351 27.7866 115.186 28.183 115.155 28.6802Z" fill="#010C41"/>
<path d="M120.188 32.0779V26.3799H121.043V27.1905C121.455 26.5654 122.051 26.252 122.831 26.252C123.17 26.252 123.48 26.3132 123.764 26.4375C124.048 26.5618 124.26 26.7221 124.402 26.9239C124.542 27.1239 124.641 27.3616 124.698 27.6373C124.734 27.8156 124.751 28.1291 124.751 28.5758V32.0797H123.8V28.6137C123.8 28.2209 123.763 27.9255 123.688 27.7309C123.614 27.5364 123.482 27.3797 123.294 27.2644C123.106 27.1491 122.884 27.0896 122.63 27.0896C122.225 27.0896 121.876 27.2193 121.581 27.4805C121.286 27.7418 121.139 28.2372 121.139 28.9667V32.0797H120.188V32.0779Z" fill="#010C41"/>
<path d="M129.603 29.9898L130.538 30.1123C130.436 30.7662 130.175 31.2797 129.754 31.649C129.333 32.0201 128.815 32.2038 128.202 32.2038C127.434 32.2038 126.816 31.948 126.349 31.44C125.882 30.9302 125.648 30.1988 125.648 29.2476C125.648 28.6315 125.749 28.0947 125.95 27.6335C126.15 27.1723 126.456 26.8265 126.867 26.5959C127.278 26.3653 127.725 26.25 128.208 26.25C128.818 26.25 129.317 26.4067 129.704 26.7202C130.091 27.0336 130.34 27.4768 130.45 28.0533L129.525 28.1974C129.436 27.8155 129.28 27.5272 129.056 27.3345C128.833 27.1417 128.563 27.0444 128.245 27.0444C127.766 27.0444 127.375 27.2192 127.077 27.5669C126.777 27.9163 126.628 28.4676 126.628 29.2224C126.628 29.988 126.772 30.5447 127.061 30.8905C127.35 31.2382 127.727 31.4112 128.192 31.4112C128.566 31.4112 128.877 31.2941 129.127 31.0617C129.378 30.8311 129.536 30.4726 129.603 29.9898Z" fill="#010C41"/>
<path d="M131.087 25.3224V24.2109H132.038V25.3224H131.087ZM131.087 32.0779V26.3799H132.038V32.0779H131.087Z" fill="#010C41"/>
<path d="M136.881 31.373C136.528 31.6775 136.189 31.8919 135.864 32.0162C135.537 32.1423 135.188 32.2035 134.815 32.2035C134.199 32.2035 133.723 32.0504 133.393 31.7441C133.061 31.4379 132.896 31.047 132.896 30.5714C132.896 30.2922 132.958 30.0382 133.084 29.8076C133.208 29.577 133.374 29.3914 133.576 29.2527C133.778 29.114 134.007 29.0077 134.261 28.9357C134.447 28.8852 134.73 28.8366 135.108 28.7915C135.876 28.6979 136.443 28.588 136.805 28.4583C136.808 28.3268 136.81 28.2421 136.81 28.2061C136.81 27.8134 136.72 27.5359 136.54 27.3738C136.297 27.1558 135.935 27.0459 135.456 27.0459C135.008 27.0459 134.678 27.1252 134.465 27.2855C134.252 27.4459 134.094 27.7269 133.991 28.1304L133.061 28.0025C133.146 27.599 133.285 27.2729 133.478 27.0225C133.672 26.7739 133.952 26.583 134.32 26.4479C134.685 26.3127 135.111 26.2461 135.594 26.2461C136.073 26.2461 136.462 26.3037 136.762 26.4172C137.062 26.5325 137.282 26.6748 137.423 26.8496C137.563 27.0225 137.662 27.2423 137.719 27.5071C137.751 27.671 137.767 27.9683 137.767 28.3988V29.6869C137.767 30.584 137.787 31.1533 137.827 31.391C137.868 31.6288 137.948 31.8576 138.069 32.0756H137.075C136.973 31.8774 136.91 31.6433 136.881 31.373ZM136.801 29.2167C136.455 29.359 135.939 29.4815 135.246 29.5824C134.854 29.64 134.579 29.7031 134.416 29.7751C134.254 29.8472 134.128 29.9517 134.041 30.0886C133.952 30.2255 133.908 30.3786 133.908 30.548C133.908 30.8056 134.004 31.0199 134.195 31.1911C134.387 31.3622 134.669 31.4487 135.039 31.4487C135.406 31.4487 135.731 31.3676 136.017 31.2037C136.302 31.0416 136.512 30.8182 136.645 30.5354C136.748 30.3174 136.798 29.9949 136.798 29.5698V29.2167H136.801Z" fill="#010C41"/>
<path d="M62.6572 45.2654V44.5466C62.3004 45.1123 61.7785 45.3951 61.0862 45.3951C60.6389 45.3951 60.227 45.269 59.8507 45.0204C59.4744 44.77 59.185 44.4205 58.9773 43.9719C58.7714 43.5234 58.6685 43.0064 58.6685 42.4245C58.6685 41.8552 58.7625 41.34 58.9489 40.877C59.1353 40.4141 59.4158 40.0592 59.7903 39.8124C60.1631 39.5656 60.5821 39.4413 61.0436 39.4413C61.3826 39.4413 61.6826 39.5133 61.9471 39.6593C62.2116 39.8034 62.4264 39.9925 62.5915 40.2249V37.3984H63.5377V45.2654H62.6572ZM59.6501 42.4209C59.6501 43.1505 59.801 43.6963 60.1045 44.0566C60.4081 44.4169 60.7649 44.5988 61.1785 44.5988C61.5939 44.5988 61.9471 44.4259 62.2383 44.0818C62.5294 43.736 62.675 43.2099 62.675 42.502C62.675 41.7219 62.5276 41.1491 62.2312 40.7852C61.9347 40.4213 61.5708 40.2375 61.1359 40.2375C60.7134 40.2375 60.3602 40.4123 60.0761 40.7636C59.7903 41.113 59.6501 41.6661 59.6501 42.4209Z" fill="#010C41"/>
<path d="M68.6092 43.4295L69.5926 43.552C69.4382 44.1357 69.1506 44.5879 68.7299 44.9103C68.3109 45.2328 67.7749 45.3931 67.1234 45.3931C66.3015 45.3931 65.6518 45.1373 65.1707 44.6239C64.6897 44.1105 64.4482 43.3899 64.4482 42.4639C64.4482 41.5056 64.6914 40.7616 65.1778 40.2319C65.6642 39.7023 66.2944 39.4375 67.0701 39.4375C67.821 39.4375 68.4334 39.6969 68.9109 40.2157C69.3867 40.7345 69.6246 41.4641 69.6246 42.4045C69.6246 42.4621 69.6228 42.5468 69.6192 42.6621H65.4317C65.4672 43.2872 65.6411 43.7664 65.9553 44.0997C66.2695 44.4329 66.6601 44.5987 67.1287 44.5987C67.4784 44.5987 67.7749 44.505 68.0216 44.3194C68.2701 44.1339 68.4654 43.8367 68.6092 43.4295ZM65.4849 41.8677H68.6198C68.5772 41.3885 68.4583 41.0282 68.2595 40.7886C67.9559 40.4157 67.5636 40.2301 67.0808 40.2301C66.6441 40.2301 66.2766 40.3779 65.9784 40.6751C65.682 40.9741 65.5169 41.3705 65.4849 41.8677Z" fill="#010C41"/>
<path d="M78.9071 42.5059L79.9331 42.7689C79.7183 43.6246 79.3313 44.2749 78.7722 44.7253C78.213 45.1757 77.5313 45.399 76.7236 45.399C75.8876 45.399 75.2094 45.2261 74.6858 44.882C74.1621 44.5361 73.7645 44.0371 73.4911 43.3814C73.2177 42.7275 73.0811 42.0231 73.0811 41.2719C73.0811 40.4522 73.2355 39.7389 73.5444 39.1282C73.8532 38.5193 74.2917 38.0545 74.8615 37.7393C75.4313 37.4222 76.058 37.2637 76.7414 37.2637C77.5171 37.2637 78.1686 37.4636 78.6976 37.8654C79.2266 38.2653 79.594 38.8291 79.8017 39.5551L78.7917 39.7965C78.6124 39.2237 78.3514 38.8075 78.0088 38.5463C77.6662 38.2851 77.2367 38.1554 76.7183 38.1554C76.1219 38.1554 75.6248 38.2995 75.2254 38.5895C74.826 38.8796 74.5438 39.2687 74.3822 39.7569C74.2207 40.2451 74.139 40.7477 74.139 41.2665C74.139 41.9348 74.2349 42.5185 74.4266 43.0175C74.6183 43.5165 74.9183 43.8894 75.3231 44.1362C75.7278 44.383 76.168 44.5073 76.6402 44.5073C77.2154 44.5073 77.7017 44.3398 78.0994 44.0029C78.497 43.666 78.7668 43.167 78.9071 42.5059Z" fill="#010C41"/>
<path d="M84.4686 44.5625C84.1153 44.8669 83.7763 45.0813 83.4514 45.2056C83.1248 45.3317 82.7751 45.393 82.4023 45.393C81.7864 45.393 81.3106 45.2398 80.9804 44.9336C80.6485 44.6273 80.4834 44.2364 80.4834 43.7608C80.4834 43.4816 80.5455 43.2276 80.6716 42.997C80.7958 42.7664 80.9609 42.5809 81.1633 42.4422C81.3656 42.3035 81.5946 42.1972 81.8485 42.1251C82.0349 42.0747 82.3171 42.026 82.6952 41.981C83.4639 41.8873 84.0301 41.7774 84.3923 41.6477C84.3958 41.5162 84.3976 41.4316 84.3976 41.3955C84.3976 41.0028 84.3071 40.7254 84.1278 40.5633C83.8846 40.3453 83.5224 40.2354 83.0431 40.2354C82.5958 40.2354 82.2656 40.3147 82.0526 40.475C81.8396 40.6353 81.6816 40.9163 81.5787 41.3199L80.6485 41.192C80.7337 40.7884 80.8722 40.4624 81.0656 40.212C81.2591 39.9634 81.5396 39.7724 81.9071 39.6373C82.2727 39.5022 82.6988 39.4355 83.1816 39.4355C83.6609 39.4355 84.0497 39.4932 84.3497 39.6067C84.6497 39.722 84.8698 39.8643 85.01 40.039C85.1502 40.212 85.2496 40.4318 85.3065 40.6966C85.3384 40.8605 85.3544 41.1577 85.3544 41.5883V42.8763C85.3544 43.7734 85.3739 44.3427 85.4147 44.5805C85.4556 44.8183 85.5354 45.0471 85.6562 45.2651H84.6621C84.5609 45.0651 84.497 44.8309 84.4686 44.5625ZM84.3905 42.4043C84.0443 42.5467 83.5278 42.6692 82.8355 42.77C82.4432 42.8277 82.168 42.8907 82.0047 42.9628C81.8432 43.0349 81.7171 43.1393 81.6301 43.2762C81.5414 43.4132 81.497 43.5663 81.497 43.7356C81.497 43.9932 81.5929 44.2076 81.7846 44.3787C81.9763 44.5499 82.2585 44.6363 82.6278 44.6363C82.9952 44.6363 83.3201 44.5553 83.6059 44.3913C83.8917 44.2292 84.1011 44.0058 84.2343 43.723C84.3372 43.505 84.3869 43.1826 84.3869 42.7574V42.4043H84.3905Z" fill="#010C41"/>
<path d="M85.3452 47.4758L85.5245 46.6543C85.7144 46.7048 85.8653 46.73 85.9736 46.73C86.1671 46.73 86.3127 46.6651 86.4068 46.5336C86.5026 46.4039 86.5488 46.076 86.5488 45.5536V39.5656H87.5002V45.577C87.5002 46.2778 87.4097 46.766 87.2304 47.0416C87.0014 47.4001 86.6198 47.5785 86.089 47.5785C85.8334 47.5785 85.5849 47.5442 85.3452 47.4758ZM86.5505 38.5207V37.3984H87.502V38.5207H86.5505Z" fill="#010C41"/>
<path d="M92.3553 44.5625C92.0021 44.8669 91.663 45.0813 91.3381 45.2056C91.0115 45.3317 90.6618 45.393 90.289 45.393C89.6731 45.393 89.1973 45.2398 88.8672 44.9336C88.5352 44.6273 88.3701 44.2364 88.3701 43.7608C88.3701 43.4816 88.4322 43.2276 88.5583 42.997C88.6825 42.7664 88.8476 42.5809 89.05 42.4422C89.2524 42.3035 89.4814 42.1972 89.7352 42.1251C89.9216 42.0747 90.2038 42.026 90.5819 41.981C91.3506 41.8873 91.9169 41.7774 92.279 41.6477C92.2825 41.5162 92.2843 41.4316 92.2843 41.3955C92.2843 41.0028 92.1938 40.7254 92.0145 40.5633C91.7713 40.3453 91.4092 40.2354 90.9299 40.2354C90.4825 40.2354 90.1524 40.3147 89.9393 40.475C89.7263 40.6353 89.5683 40.9163 89.4654 41.3199L88.5352 41.192C88.6204 40.7884 88.7589 40.4624 88.9524 40.212C89.1459 39.9634 89.4263 39.7724 89.7938 39.6373C90.1595 39.5022 90.5855 39.4355 91.0683 39.4355C91.5476 39.4355 91.9364 39.4932 92.2364 39.6067C92.5364 39.722 92.7565 39.8643 92.8967 40.039C93.037 40.212 93.1364 40.4318 93.1932 40.6966C93.2251 40.8605 93.2411 41.1577 93.2411 41.5883V42.8763C93.2411 43.7734 93.2606 44.3427 93.3015 44.5805C93.3423 44.8183 93.4222 45.0471 93.5429 45.2651H92.5488C92.4476 45.0651 92.3837 44.8309 92.3553 44.5625ZM92.2754 42.4043C91.9293 42.5467 91.4127 42.6692 90.7204 42.77C90.3281 42.8277 90.053 42.8907 89.8896 42.9628C89.7281 43.0349 89.6021 43.1393 89.5151 43.2762C89.4263 43.4132 89.3819 43.5663 89.3819 43.7356C89.3819 43.9932 89.4778 44.2076 89.6695 44.3787C89.8612 44.5499 90.1435 44.6363 90.5127 44.6363C90.8802 44.6363 91.205 44.5553 91.4908 44.3913C91.7766 44.2292 91.9861 44.0058 92.1192 43.723C92.2222 43.505 92.2719 43.1826 92.2719 42.7574V42.4043H92.2754Z" fill="#010C41"/>
<path d="M94.063 43.5648L95.0038 43.4153C95.0571 43.7972 95.2044 44.0908 95.4458 44.2944C95.6872 44.4979 96.0245 44.6006 96.4577 44.6006C96.8943 44.6006 97.2192 44.5105 97.4304 44.3304C97.6417 44.1503 97.7482 43.9377 97.7482 43.6945C97.7482 43.4765 97.6541 43.3036 97.4677 43.1793C97.3363 43.0928 97.0133 42.9847 96.4949 42.8514C95.7973 42.6731 95.3127 42.5181 95.0429 42.3866C94.773 42.2569 94.5689 42.075 94.4287 41.8444C94.2902 41.6138 94.2192 41.358 94.2192 41.0806C94.2192 40.8266 94.276 40.5924 94.3914 40.3744C94.505 40.1582 94.6612 39.9781 94.86 39.8358C95.0074 39.7241 95.2097 39.6304 95.4653 39.5547C95.721 39.4791 95.9943 39.4395 96.2872 39.4395C96.7275 39.4395 97.1145 39.5043 97.4482 39.6322C97.7819 39.7601 98.0269 39.9349 98.1866 40.1546C98.3446 40.3744 98.4547 40.668 98.515 41.0373L97.5849 41.1652C97.5423 40.8716 97.4198 40.6428 97.2174 40.4789C97.015 40.315 96.7292 40.2321 96.3582 40.2321C95.9216 40.2321 95.6091 40.306 95.4227 40.4519C95.2364 40.5978 95.1423 40.7707 95.1423 40.9671C95.1423 41.0914 95.1813 41.2049 95.2577 41.3058C95.3358 41.4102 95.4565 41.4949 95.6233 41.5634C95.7192 41.5994 95.9979 41.6823 96.4647 41.8102C97.1375 41.9921 97.6079 42.1416 97.8742 42.2587C98.1405 42.3758 98.35 42.5434 98.5008 42.7649C98.6517 42.9865 98.7281 43.2621 98.7281 43.5918C98.7281 43.9143 98.6357 44.2169 98.4511 44.5015C98.2665 44.7862 97.9985 45.0059 97.6505 45.1609C97.3026 45.3158 96.9068 45.3951 96.4665 45.3951C95.7369 45.3951 95.1813 45.2419 94.7979 44.9339C94.4127 44.624 94.1677 44.1683 94.063 43.5648Z" fill="#010C41"/>
<path d="M105.967 45.2654V44.5466C105.61 45.1123 105.089 45.3951 104.396 45.3951C103.949 45.3951 103.537 45.269 103.161 45.0204C102.784 44.77 102.495 44.4205 102.287 43.9719C102.081 43.5234 101.979 43.0064 101.979 42.4245C101.979 41.8552 102.073 41.34 102.259 40.877C102.445 40.4141 102.726 40.0592 103.1 39.8124C103.473 39.5656 103.892 39.4413 104.354 39.4413C104.693 39.4413 104.993 39.5133 105.257 39.6593C105.522 39.8034 105.736 39.9925 105.902 40.2249V37.3984H106.848V45.2654H105.967ZM102.958 42.4209C102.958 43.1505 103.109 43.6963 103.413 44.0566C103.716 44.4169 104.073 44.5988 104.487 44.5988C104.902 44.5988 105.255 44.4259 105.547 44.0818C105.838 43.736 105.983 43.2099 105.983 42.502C105.983 41.7219 105.836 41.1491 105.539 40.7852C105.243 40.4213 104.879 40.2375 104.444 40.2375C104.022 40.2375 103.668 40.4123 103.384 40.7636C103.1 41.113 102.958 41.6661 102.958 42.4209Z" fill="#010C41"/>
<path d="M111.919 43.4295L112.903 43.552C112.748 44.1357 112.461 44.5879 112.04 44.9103C111.621 45.2328 111.085 45.3931 110.433 45.3931C109.612 45.3931 108.962 45.1373 108.481 44.6239C108 44.1105 107.758 43.3899 107.758 42.4639C107.758 41.5056 108.002 40.7616 108.488 40.2319C108.974 39.7023 109.604 39.4375 110.38 39.4375C111.131 39.4375 111.743 39.6969 112.221 40.2157C112.697 40.7345 112.935 41.4641 112.935 42.4045C112.935 42.4621 112.933 42.5468 112.929 42.6621H108.742C108.777 43.2872 108.951 43.7664 109.265 44.0997C109.58 44.4329 109.97 44.5987 110.439 44.5987C110.788 44.5987 111.085 44.505 111.332 44.3194C111.58 44.1339 111.775 43.8367 111.919 43.4295ZM108.795 41.8677H111.93C111.887 41.3885 111.768 41.0282 111.57 40.7886C111.266 40.4157 110.874 40.2301 110.391 40.2301C109.954 40.2301 109.587 40.3779 109.288 40.6751C108.992 40.9741 108.827 41.3705 108.795 41.8677Z" fill="#010C41"/>
<path d="M115.239 45.2654L118.216 37.3984H119.32L122.492 45.2654H121.324L120.42 42.8839H117.179L116.329 45.2654H115.239ZM117.475 42.0354H120.103L119.293 39.8574C119.046 39.1963 118.864 38.6522 118.743 38.2271C118.643 38.7315 118.505 39.2323 118.326 39.7295L117.475 42.0354Z" fill="#010C41"/>
<path d="M122.92 45.2654V37.3984H123.871V40.2213C124.315 39.6989 124.876 39.4377 125.552 39.4377C125.968 39.4377 126.33 39.5206 126.637 39.6863C126.944 39.852 127.163 40.0826 127.296 40.3762C127.429 40.6699 127.494 41.095 127.494 41.6535V45.2636H126.543V41.6535C126.543 41.1707 126.44 40.8194 126.234 40.5996C126.028 40.3798 125.737 40.27 125.359 40.27C125.077 40.27 124.812 40.3438 124.564 40.4933C124.315 40.6411 124.138 40.8428 124.033 41.0968C123.926 41.3508 123.875 41.7021 123.875 42.1489V45.2654H122.92Z" fill="#010C41"/>
<path d="M128.316 42.4153C128.316 41.3597 128.605 40.5778 129.182 40.0698C129.665 39.6483 130.254 39.4375 130.948 39.4375C131.721 39.4375 132.351 39.6933 132.841 40.2067C133.331 40.7201 133.576 41.4299 133.576 42.3342C133.576 43.0674 133.467 43.6439 133.251 44.0654C133.034 44.4852 132.718 44.813 132.305 45.0454C131.891 45.2778 131.438 45.3949 130.948 45.3949C130.162 45.3949 129.527 45.1391 129.042 44.6275C128.559 44.1141 128.316 43.3773 128.316 42.4153ZM129.294 42.4153C129.294 43.1449 129.45 43.6907 129.764 44.0546C130.079 44.4185 130.473 44.5987 130.948 44.5987C131.421 44.5987 131.815 44.4167 132.127 44.051C132.441 43.6853 132.598 43.1305 132.598 42.3829C132.598 41.6785 132.44 41.1435 132.124 40.7814C131.808 40.4193 131.415 40.2373 130.947 40.2373C130.471 40.2373 130.077 40.4175 129.763 40.7796C129.448 41.1417 129.294 41.6857 129.294 42.4153Z" fill="#010C41"/>
<path d="M134.412 45.2654V39.5674H135.27V40.4321C135.488 40.0285 135.69 39.7619 135.875 39.6322C136.059 39.5043 136.264 39.4395 136.485 39.4395C136.807 39.4395 137.132 39.5439 137.464 39.7511L137.135 40.6464C136.903 40.5059 136.67 40.4375 136.438 40.4375C136.23 40.4375 136.043 40.5005 135.877 40.6284C135.71 40.7563 135.593 40.9311 135.522 41.1562C135.415 41.5003 135.364 41.875 135.364 42.2822V45.2654H134.412Z" fill="#010C41"/>
<path d="M137.748 45.2654V39.5674H138.605V40.4321C138.823 40.0285 139.026 39.7619 139.21 39.6322C139.395 39.5043 139.599 39.4395 139.821 39.4395C140.142 39.4395 140.467 39.5439 140.799 39.7511L140.471 40.6464C140.238 40.5059 140.006 40.4375 139.773 40.4375C139.565 40.4375 139.379 40.5005 139.212 40.6284C139.045 40.7563 138.928 40.9311 138.857 41.1562C138.751 41.5003 138.699 41.875 138.699 42.2822V45.2654H137.748Z" fill="#010C41"/>
<path d="M140.739 42.4153C140.739 41.3597 141.028 40.5778 141.605 40.0698C142.088 39.6483 142.677 39.4375 143.371 39.4375C144.143 39.4375 144.774 39.6933 145.264 40.2067C145.754 40.7201 145.999 41.4299 145.999 42.3342C145.999 43.0674 145.89 43.6439 145.674 44.0654C145.457 44.4852 145.141 44.813 144.728 45.0454C144.314 45.2778 143.861 45.3949 143.371 45.3949C142.585 45.3949 141.949 45.1391 141.465 44.6275C140.982 44.1141 140.739 43.3773 140.739 42.4153ZM141.717 42.4153C141.717 43.1449 141.873 43.6907 142.187 44.0546C142.501 44.4185 142.896 44.5987 143.371 44.5987C143.843 44.5987 144.238 44.4167 144.55 44.051C144.864 43.6853 145.02 43.1305 145.02 42.3829C145.02 41.6785 144.862 41.1435 144.546 40.7814C144.23 40.4193 143.838 40.2373 143.37 40.2373C142.894 40.2373 142.5 40.4175 142.186 40.7796C141.871 41.1417 141.717 41.6857 141.717 42.4153Z" fill="#010C41"/>
<path d="M58.8389 15.3168L60.9353 15.1096C61.0613 15.823 61.317 16.349 61.7039 16.6841C62.0909 17.0191 62.611 17.1867 63.2661 17.1867C63.9601 17.1867 64.4838 17.0372 64.8353 16.7399C65.1868 16.4427 65.3625 16.0932 65.3625 15.6951C65.3625 15.4393 65.288 15.2213 65.1406 15.0411C64.9933 14.861 64.7341 14.7043 64.3649 14.5728C64.1128 14.4845 63.5377 14.326 62.6394 14.1008C61.4838 13.8108 60.6744 13.4523 60.2075 13.0289C59.5525 12.4326 59.2241 11.7067 59.2241 10.8492C59.2241 10.2979 59.3785 9.7809 59.6856 9.30171C59.9927 8.82253 60.4383 8.45503 61.0187 8.20463C61.5992 7.95423 62.2986 7.82812 63.1187 7.82812C64.459 7.82812 65.4672 8.12536 66.1436 8.72165C66.8199 9.31793 67.1767 10.1124 67.2104 11.1086L65.0554 11.204C64.9631 10.6474 64.7661 10.2475 64.4625 10.0025C64.159 9.75748 63.7045 9.63679 63.0974 9.63679C62.4708 9.63679 61.9809 9.76649 61.6258 10.0277C61.3968 10.1952 61.2832 10.4186 61.2832 10.6996C61.2832 10.9554 61.3897 11.1752 61.6028 11.3572C61.8744 11.5896 62.5347 11.8292 63.5838 12.0814C64.6329 12.3336 65.4069 12.593 65.9093 12.8614C66.4116 13.1298 66.8039 13.4973 67.0879 13.9621C67.372 14.4269 67.514 15.0033 67.514 15.6879C67.514 16.3094 67.3436 16.8894 67.0045 17.4317C66.6655 17.9739 66.1844 18.3756 65.5631 18.6405C64.9418 18.9053 64.1678 19.035 63.2412 19.035C61.8921 19.035 60.8554 18.7179 60.1329 18.0856C59.4105 17.4533 58.9809 16.5291 58.8389 15.3168Z" fill="#010C41"/>
<path d="M68.9448 8.00977H71.0998V13.8771C71.0998 14.8085 71.1265 15.4119 71.1797 15.6876C71.272 16.1307 71.4921 16.4874 71.8383 16.7558C72.1845 17.0242 72.6602 17.1594 73.262 17.1594C73.8744 17.1594 74.3341 17.0332 74.6448 16.7792C74.9554 16.5252 75.1418 16.2136 75.2057 15.8443C75.2696 15.475 75.2998 14.8607 75.2998 14.005V8.00977H77.4548V13.6988C77.4548 14.9994 77.3963 15.9181 77.2809 16.455C77.1655 16.9918 76.9489 17.4458 76.6365 17.8151C76.3241 18.1844 75.9052 18.478 75.3797 18.6978C74.8543 18.9176 74.1708 19.0275 73.3259 19.0275C72.3069 19.0275 71.533 18.9086 71.0075 18.669C70.4821 18.4294 70.0649 18.1195 69.7596 17.7376C69.4543 17.3557 69.2519 16.9558 69.1561 16.536C69.0158 15.9145 68.9448 14.9994 68.9448 13.787V8.00977Z" fill="#010C41"/>
<path d="M79.3473 8.00977H83.2863C84.1739 8.00977 84.852 8.07822 85.3171 8.21693C85.9437 8.40428 86.4798 8.73575 86.9254 9.21494C87.3709 9.69413 87.7118 10.2778 87.9443 10.9696C88.1769 11.6613 88.294 12.5152 88.294 13.5294C88.294 14.4211 88.184 15.1886 87.9656 15.8353C87.6993 16.6243 87.3177 17.262 86.8224 17.7484C86.4479 18.1177 85.9437 18.406 85.3082 18.6131C84.8325 18.7662 84.197 18.8419 83.3999 18.8419H79.3438V8.00977H79.3473ZM81.5023 9.84184V17.017H83.1106C83.7124 17.017 84.1473 16.9828 84.4136 16.9144C84.7633 16.8261 85.0526 16.6748 85.2834 16.464C85.5141 16.2532 85.7023 15.9037 85.8479 15.4191C85.9934 14.9346 86.0662 14.2734 86.0662 13.4357C86.0662 12.5981 85.9934 11.955 85.8479 11.5064C85.7023 11.0578 85.4982 10.7083 85.2354 10.4579C84.9727 10.2075 84.6408 10.0364 84.2378 9.94813C83.936 9.87968 83.3467 9.84545 82.468 9.84545H81.5023V9.84184Z" fill="#010C41"/>
<path d="M89.7495 18.8419V8.00977H97.6631V9.84184H91.9045V12.2432H97.2637V14.0681H91.9045V17.017H97.8672V18.8419H89.7495Z" fill="#010C41"/>
<path d="M106.152 14.8589L108.241 15.5308C107.922 16.7126 107.387 17.5917 106.643 18.1646C105.9 18.7374 104.954 19.0257 103.807 19.0257C102.39 19.0257 101.224 18.5339 100.312 17.5521C99.3991 16.5703 98.9429 15.2264 98.9429 13.5222C98.9429 11.719 99.4009 10.3192 100.319 9.32123C101.236 8.32322 102.442 7.82422 103.936 7.82422C105.243 7.82422 106.303 8.21513 107.117 8.99877C107.602 9.46174 107.968 10.1265 108.209 10.993L106.075 11.51C105.949 10.9479 105.687 10.5048 105.285 10.1805C104.884 9.85626 104.398 9.69233 103.826 9.69233C103.035 9.69233 102.394 9.98056 101.9 10.557C101.407 11.1335 101.162 12.0666 101.162 13.3565C101.162 14.7256 101.405 15.702 101.89 16.282C102.374 16.8621 103.006 17.1539 103.782 17.1539C104.355 17.1539 104.847 16.9684 105.261 16.5991C105.674 16.2298 105.972 15.6515 106.152 14.8589Z" fill="#010C41"/>
<path d="M119.343 18.8419H117L116.068 16.3811H111.8L110.92 18.8419H108.633L112.791 8.00977H115.07L119.343 18.8419ZM115.375 14.5563L113.904 10.5372L112.462 14.5563H115.375Z" fill="#010C41"/>
</g>
<defs>
<clipPath id="clip0_5102_10130">
<rect width="146" height="56" fill="white"/>
</clipPath>
</defs>
</svg>
